<?xml version="1.0" encoding="UTF-8" standalone="no"?>
<svg width="170px" height="170px" viewBox="0 0 170 170" version="1.1" xmlns="http://www.w3.org/2000/svg" xmlns:xlink="http://www.w3.org/1999/xlink">
    <!-- Generator: Sketch 41.2 (35397) - http://www.bohemiancoding.com/sketch -->
    <title>Icon</title>
    <desc>Created with Sketch.</desc>
    <defs>
        <filter x="-50%" y="-50%" width="200%" height="200%" filterUnits="objectBoundingBox" id="filter-1">
            <feOffset dx="0" dy="2" in="SourceAlpha" result="shadowOffsetOuter1"></feOffset>
            <feGaussianBlur stdDeviation="2" in="shadowOffsetOuter1" result="shadowBlurOuter1"></feGaussianBlur>
            <feColorMatrix values="0 0 0 0 0   0 0 0 0 0   0 0 0 0 0  0 0 0 0.5 0" type="matrix" in="shadowBlurOuter1" result="shadowMatrixOuter1"></feColorMatrix>
            <feMerge>
                <feMergeNode in="shadowMatrixOuter1"></feMergeNode>
                <feMergeNode in="SourceGraphic"></feMergeNode>
            </feMerge>
        </filter>
        <path d="M162,12 C162,5.4 156.6,0 150,0 L81,0 C30.8,0 -8.7,45.7 1.7,97.7 C8.1,129.7 33.6,154.6 65.7,160.5 C115.7,169.7 159.5,133 161.9,85 L162,85 L162,12 L162,12 Z" id="path-2"></path>
    </defs>
    <g id="Page-1" stroke="none" stroke-width="1" fill="none" fill-rule="evenodd">
        <g id="google-duo-logo-icon" transform="translate(-92.000000, -18.000000)">
            <g id="Icon" filter="url(#filter-1)" transform="translate(86.000000, 0.000000)">
                <g transform="translate(10.000000, 20.000000)">
                    <mask id="mask-3" fill="white">
                        <use xlink:href="#path-2"></use>
                    </mask>
                    <use fill="#4BA6F5" xlink:href="#path-2"></use>
                </g>
                <g id="d-icon" transform="translate(51.000000, 38.000000)" fill="#FFFFFF">
                    <path d="M11.4495354,50.0837838 C18.5882349,42.8189189 27.5993803,39.3 38.5999992,39.3 C49.6006182,39.3 58.6117635,42.9324324 65.7504631,50.0837838 C72.8891626,57.3486487 76.3999985,66.3162163 76.3999985,77.2135136 C76.3999985,88.1108109 72.8891626,97.0783785 65.7504631,104.343243 C58.6117635,111.608108 49.6006182,115.127027 38.5999992,115.127027 C27.5993803,115.127027 18.5882349,111.494595 11.4495354,104.343243 C4.31083584,97.0783785 0.8,88.1108109 0.8,77.2135136 C0.8,66.3162163 4.31083584,57.2351352 11.4495354,50.0837838 L11.4495354,50.0837838 Z M21.3339079,94.9759287 C25.9339079,99.329911 31.3192738,101.559999 37.4900055,101.559999 C43.6607372,101.559999 49.0461031,99.329911 53.6461031,94.9759287 C58.2461031,90.6219464 60.4900055,84.7812384 60.4900055,77.5599995 C60.4900055,70.3387605 58.2461031,64.4980526 53.6461031,60.1440703 C49.0461031,55.790088 43.6607372,53.5599995 37.4900055,53.5599995 C31.3192738,53.5599995 25.9339079,55.790088 21.3339079,60.1440703 C16.7339079,64.4980526 14.4900055,70.3387605 14.4900055,77.5599995 C14.4900055,84.7812384 16.8461031,90.6219464 21.3339079,94.9759287 L21.3339079,94.9759287 Z" id="o"></path>
                    <g id="Group" transform="translate(60.000000, 0.000000)">
                        <path d="M2.8704933,72.3653111 C4.4704933,73.8166385 6.34366403,74.5600014 8.49000549,74.5600014 C10.636347,74.5600014 12.5095177,73.8166385 14.1095177,72.3653111 C15.7095177,70.9139837 16.4900055,68.967081 16.4900055,66.5600014 C16.4900055,64.1529217 15.7095177,62.2060191 14.1095177,60.7546916 C12.5095177,59.3033642 10.636347,58.5600014 8.49000549,58.5600014 C6.34366403,58.5600014 4.4704933,59.3033642 2.8704933,60.7546916 C1.2704933,62.2060191 0.490005493,64.1529217 0.490005493,66.5600014 C0.490005493,68.967081 1.30951769,70.9139837 2.8704933,72.3653111 L2.8704933,72.3653111 Z" id="o"></path>
                        <path d="M2.8704933,70.3653111 C4.4704933,71.8166385 6.34366403,72.5600014 8.49000549,72.5600014 C10.636347,72.5600014 12.5095177,71.8166385 14.1095177,70.3653111 C15.7095177,68.9139837 16.4900055,66.967081 16.4900055,64.5600014 C16.4900055,62.1529217 15.7095177,60.2060191 14.1095177,58.7546916 C12.5095177,57.3033642 10.636347,56.5600014 8.49000549,56.5600014 C6.34366403,56.5600014 4.4704933,57.3033642 2.8704933,58.7546916 C1.2704933,60.2060191 0.490005493,62.1529217 0.490005493,64.5600014 C0.490005493,66.967081 1.30951769,68.9139837 2.8704933,70.3653111 L2.8704933,70.3653111 Z" id="o"></path>
                        <path d="M2.8704933,65.3653111 C4.4704933,66.8166385 6.34366403,67.5600014 8.49000549,67.5600014 C10.636347,67.5600014 12.5095177,66.8166385 14.1095177,65.3653111 C15.7095177,63.9139837 16.4900055,61.967081 16.4900055,59.5600014 C16.4900055,57.1529217 15.7095177,55.2060191 14.1095177,53.7546916 C12.5095177,52.3033642 10.636347,51.5600014 8.49000549,51.5600014 C6.34366403,51.5600014 4.4704933,52.3033642 2.8704933,53.7546916 C1.2704933,55.2060191 0.490005493,57.1529217 0.490005493,59.5600014 C0.490005493,61.967081 1.30951769,63.9139837 2.8704933,65.3653111 L2.8704933,65.3653111 Z" id="o"></path>
                        <path d="M2.8704933,61.3653111 C4.4704933,62.8166385 6.34366403,63.5600014 8.49000549,63.5600014 C10.636347,63.5600014 12.5095177,62.8166385 14.1095177,61.3653111 C15.7095177,59.9139837 16.4900055,57.967081 16.4900055,55.5600014 C16.4900055,53.1529217 15.7095177,51.2060191 14.1095177,49.7546916 C12.5095177,48.3033642 10.636347,47.5600014 8.49000549,47.5600014 C6.34366403,47.5600014 4.4704933,48.3033642 2.8704933,49.7546916 C1.2704933,51.2060191 0.490005493,53.1529217 0.490005493,55.5600014 C0.490005493,57.967081 1.30951769,59.9139837 2.8704933,61.3653111 L2.8704933,61.3653111 Z" id="o"></path>
                        <path d="M2.8704933,55.3653111 C4.4704933,56.8166385 6.34366403,57.5600014 8.49000549,57.5600014 C10.636347,57.5600014 12.5095177,56.8166385 14.1095177,55.3653111 C15.7095177,53.9139837 16.4900055,51.967081 16.4900055,49.5600014 C16.4900055,47.1529217 15.7095177,45.2060191 14.1095177,43.7546916 C12.5095177,42.3033642 10.636347,41.5600014 8.49000549,41.5600014 C6.34366403,41.5600014 4.4704933,42.3033642 2.8704933,43.7546916 C1.2704933,45.2060191 0.490005493,47.1529217 0.490005493,49.5600014 C0.490005493,51.967081 1.30951769,53.9139837 2.8704933,55.3653111 L2.8704933,55.3653111 Z" id="o"></path>
                        <path d="M2.8704933,50.3653111 C4.4704933,51.8166385 6.34366403,52.5600014 8.49000549,52.5600014 C10.636347,52.5600014 12.5095177,51.8166385 14.1095177,50.3653111 C15.7095177,48.9139837 16.4900055,46.967081 16.4900055,44.5600014 C16.4900055,42.1529217 15.7095177,40.2060191 14.1095177,38.7546916 C12.5095177,37.3033642 10.636347,36.5600014 8.49000549,36.5600014 C6.34366403,36.5600014 4.4704933,37.3033642 2.8704933,38.7546916 C1.2704933,40.2060191 0.490005493,42.1529217 0.490005493,44.5600014 C0.490005493,46.967081 1.30951769,48.9139837 2.8704933,50.3653111 L2.8704933,50.3653111 Z" id="o"></path>
                        <path d="M2.8704933,46.3653111 C4.4704933,47.8166385 6.34366403,48.5600014 8.49000549,48.5600014 C10.636347,48.5600014 12.5095177,47.8166385 14.1095177,46.3653111 C15.7095177,44.9139837 16.4900055,42.967081 16.4900055,40.5600014 C16.4900055,38.1529217 15.7095177,36.2060191 14.1095177,34.7546916 C12.5095177,33.3033642 10.636347,32.5600014 8.49000549,32.5600014 C6.34366403,32.5600014 4.4704933,33.3033642 2.8704933,34.7546916 C1.2704933,36.2060191 0.490005493,38.1529217 0.490005493,40.5600014 C0.490005493,42.967081 1.30951769,44.9139837 2.8704933,46.3653111 L2.8704933,46.3653111 Z" id="o"></path>
                        <path d="M2.8704933,41.3653111 C4.4704933,42.8166385 6.34366403,43.5600014 8.49000549,43.5600014 C10.636347,43.5600014 12.5095177,42.8166385 14.1095177,41.3653111 C15.7095177,39.9139837 16.4900055,37.967081 16.4900055,35.5600014 C16.4900055,33.1529217 15.7095177,31.2060191 14.1095177,29.7546916 C12.5095177,28.3033642 10.636347,27.5600014 8.49000549,27.5600014 C6.34366403,27.5600014 4.4704933,28.3033642 2.8704933,29.7546916 C1.2704933,31.2060191 0.490005493,33.1529217 0.490005493,35.5600014 C0.490005493,37.967081 1.30951769,39.9139837 2.8704933,41.3653111 L2.8704933,41.3653111 Z" id="o"></path>
                        <path d="M2.8704933,34.3653111 C4.4704933,35.8166385 6.34366403,36.5600014 8.49000549,36.5600014 C10.636347,36.5600014 12.5095177,35.8166385 14.1095177,34.3653111 C15.7095177,32.9139837 16.4900055,30.967081 16.4900055,28.5600014 C16.4900055,26.1529217 15.7095177,24.2060191 14.1095177,22.7546916 C12.5095177,21.3033642 10.636347,20.5600014 8.49000549,20.5600014 C6.34366403,20.5600014 4.4704933,21.3033642 2.8704933,22.7546916 C1.2704933,24.2060191 0.490005493,26.1529217 0.490005493,28.5600014 C0.490005493,30.967081 1.30951769,32.9139837 2.8704933,34.3653111 L2.8704933,34.3653111 Z" id="o"></path>
                        <path d="M2.8704933,37.3653111 C4.4704933,38.8166385 6.34366403,39.5600014 8.49000549,39.5600014 C10.636347,39.5600014 12.5095177,38.8166385 14.1095177,37.3653111 C15.7095177,35.9139837 16.4900055,33.967081 16.4900055,31.5600014 C16.4900055,29.1529217 15.7095177,27.2060191 14.1095177,25.7546916 C12.5095177,24.3033642 10.636347,23.5600014 8.49000549,23.5600014 C6.34366403,23.5600014 4.4704933,24.3033642 2.8704933,25.7546916 C1.2704933,27.2060191 0.490005493,29.1529217 0.490005493,31.5600014 C0.490005493,33.967081 1.30951769,35.9139837 2.8704933,37.3653111 L2.8704933,37.3653111 Z" id="o"></path>
                        <path d="M2.8704933,33.3653111 C4.4704933,34.8166385 6.34366403,35.5600014 8.49000549,35.5600014 C10.636347,35.5600014 12.5095177,34.8166385 14.1095177,33.3653111 C15.7095177,31.9139837 16.4900055,29.967081 16.4900055,27.5600014 C16.4900055,25.1529217 15.7095177,23.2060191 14.1095177,21.7546916 C12.5095177,20.3033642 10.636347,19.5600014 8.49000549,19.5600014 C6.34366403,19.5600014 4.4704933,20.3033642 2.8704933,21.7546916 C1.2704933,23.2060191 0.490005493,25.1529217 0.490005493,27.5600014 C0.490005493,29.967081 1.30951769,31.9139837 2.8704933,33.3653111 L2.8704933,33.3653111 Z" id="o"></path>
                        <path d="M2.87051676,27.3653111 C4.47053252,28.8166385 6.34372171,29.5600014 8.49008433,29.5600014 C10.6364469,29.5600014 12.5096361,28.8166385 14.1096519,27.3653111 C15.7096677,25.9139837 16.4901632,23.967081 16.4901632,21.5600014 C16.4901632,19.1529217 15.7096677,17.2060191 14.1096519,15.7546916 C12.5096361,14.3033642 10.6364469,13.5600014 8.49008433,13.5600014 C6.34372171,13.5600014 4.47053252,14.3033642 2.87051676,15.7546916 C1.27050099,17.2060191 0.490005493,19.1529217 0.490005493,21.5600014 C0.490005493,23.967081 1.30952576,25.9139837 2.87051676,27.3653111 L2.87051676,27.3653111 Z" id="o"></path>
                        <path d="M2.8704933,23.3653073 C4.4704933,24.8166347 6.34366403,25.5599976 8.49000549,25.5599976 C10.636347,25.5599976 12.5095177,24.8166347 14.1095177,23.3653073 C15.7095177,21.9139799 16.4900055,19.9670772 16.4900055,17.5599976 C16.4900055,15.1529179 15.7095177,13.2060153 14.1095177,11.7546878 C12.5095177,10.3033604 10.636347,9.55999756 8.49000549,9.55999756 C6.34366403,9.55999756 4.4704933,10.3033604 2.8704933,11.7546878 C1.2704933,13.2060153 0.490005493,15.1529179 0.490005493,17.5599976 C0.490005493,19.9670772 1.30951769,21.9139799 2.8704933,23.3653073 L2.8704933,23.3653073 Z" id="o"></path>
                        <path d="M2.8704933,18.3653073 C4.4704933,19.8166347 6.34366403,20.5599976 8.49000549,20.5599976 C10.636347,20.5599976 12.5095177,19.8166347 14.1095177,18.3653073 C15.7095177,16.9139799 16.4900055,14.9670772 16.4900055,12.5599976 C16.4900055,10.1529179 15.7095177,8.20601526 14.1095177,6.75468782 C12.5095177,5.30336039 10.636347,4.55999756 8.49000549,4.55999756 C6.34366403,4.55999756 4.4704933,5.30336039 2.8704933,6.75468782 C1.2704933,8.20601526 0.490005493,10.1529179 0.490005493,12.5599976 C0.490005493,14.9670772 1.30951769,16.9139799 2.8704933,18.3653073 L2.8704933,18.3653073 Z" id="o"></path>
                        <path d="M2.8704933,14.3653092 C4.4704933,15.8166366 6.34366403,16.5599995 8.49000549,16.5599995 C10.636347,16.5599995 12.5095177,15.8166366 14.1095177,14.3653092 C15.7095177,12.9139818 16.4900055,10.9670791 16.4900055,8.55999947 C16.4900055,6.15291982 15.7095177,4.20601717 14.1095177,2.75468973 C12.5095177,1.3033623 10.636347,0.559999466 8.49000549,0.559999466 C6.34366403,0.559999466 4.4704933,1.3033623 2.8704933,2.75468973 C1.2704933,4.20601717 0.490005493,6.15291982 0.490005493,8.55999947 C0.490005493,10.9670791 1.30951769,12.9139818 2.8704933,14.3653092 L2.8704933,14.3653092 Z" id="o"></path>
                    </g>
                </g>
                <polygon points="192 0 192 192 0 192 0 0"></polygon>
            </g>
        </g>
    </g>
</svg>
